<svg xmlns="http://www.w3.org/2000/svg" width="18.955" height="20.387" viewBox="0 0 18.955 20.387">
  <g id="Group_27981" data-name="Group 27981" transform="translate(-1626.75 -83.145)">
    <path id="Path_2" data-name="Path 2" d="M16.966,25h-5.3a.663.663,0,0,0,0,1.326h5.3a.663.663,0,0,0,0-1.326Z" transform="translate(1621.912 73.91)"/>
    <path id="Path_1" data-name="Path 1" d="M19.975,7.319A1.76,1.76,0,0,0,18.214,5.64H16.565a5.3,5.3,0,0,0-10.515,0H4.4A1.76,1.76,0,0,0,2.641,7.319L2.083,19.04a1.763,1.763,0,0,0,1.761,1.847H18.772a1.763,1.763,0,0,0,1.761-1.847ZM11.308,2.326A3.981,3.981,0,0,1,15.226,5.64H7.39A3.981,3.981,0,0,1,11.308,2.326Zm7.78,17.1a.445.445,0,0,1-.316.135H3.844a.437.437,0,0,1-.437-.458L3.965,7.382A.437.437,0,0,1,4.4,6.966H6V8.292A.663.663,0,1,0,6,9.618H7.331a.663.663,0,1,0,0-1.326V6.966h7.955V8.292a.663.663,0,0,0,0,1.326h1.326a.663.663,0,1,0,0-1.326V6.966h1.6a.436.436,0,0,1,.436.416L19.208,19.1A.446.446,0,0,1,19.088,19.426Z" transform="translate(1624.919 82.395)" stroke="#000" stroke-width="0.5"/>
  </g>
</svg>
