<svg xmlns="http://www.w3.org/2000/svg" width="22.298" height="22.343" viewBox="0 0 22.298 22.343">
  <g id="Layer_32" data-name="Layer 32" transform="translate(-2.7 -2.689)">
    <path id="Path_15232" data-name="Path 15232" d="M21.9,15.589V8.61a.374.374,0,0,0-.187-.326L12.636,3.046a.374.374,0,0,0-.374,0L3.187,8.285A.374.374,0,0,0,3,8.61V19.088a.374.374,0,0,0,.187.326l9.074,5.239a.374.374,0,0,0,.374,0l3.409-1.968a4.767,4.767,0,1,0,5.852-7.11ZM12.448,3.8,20.774,8.61,16.6,11.02,8.867,5.871Zm0,9.617L4.123,8.61,8.145,6.287l7.727,5.153Zm-8.7-4.161,8.326,4.808v9.613L3.748,18.871Zm9.074,14.421V14.066l3.368-1.957v2.915a.374.374,0,1,0,.748,0V11.679L21.13,9.258v6.066a4.655,4.655,0,0,0-1.216-.165,4.764,4.764,0,0,0-4.255,6.881Zm7.11.273a4.023,4.023,0,1,1,4.023-4.023,4.023,4.023,0,0,1-4.023,4.023Z" stroke="#000" stroke-width="0.6"/>
    <path id="Path_15233" data-name="Path 15233" d="M45.97,42.67l-2.32,3.061L42.434,44.3a.377.377,0,1,0-.58.483l1.5,1.789a.363.363,0,0,0,.573-.019l2.6-3.431a.374.374,0,1,0-.554-.453Z" transform="translate(-24.26 -24.683)" stroke="#000" stroke-width="0.6"/>
  </g>
</svg>
