<svg xmlns="http://www.w3.org/2000/svg" width="62" height="62" viewBox="0 0 62 62">
  <g id="Group_42369" data-name="Group 42369" transform="translate(-185 -831)">
    <rect id="Rectangle_11641" data-name="Rectangle 11641" width="62" height="62" rx="31" transform="translate(185 831)" fill="#055265"/>
    <g id="Bullets" transform="translate(180.217 792)">
      <circle id="Ellipse_13" data-name="Ellipse 13" cx="2.717" cy="2.717" r="2.717" transform="translate(19.783 56.195)" fill="none" stroke="#fff" stroke-linecap="round" stroke-linejoin="round" stroke-width="2"/>
      <circle id="Ellipse_14" data-name="Ellipse 14" cx="2.717" cy="2.717" r="2.717" transform="translate(19.783 67.062)" fill="none" stroke="#fff" stroke-linecap="round" stroke-linejoin="round" stroke-width="2"/>
      <circle id="Ellipse_15" data-name="Ellipse 15" cx="2.717" cy="2.717" r="2.717" transform="translate(19.783 77.928)" fill="none" stroke="#fff" stroke-linecap="round" stroke-linejoin="round" stroke-width="2"/>
      <path id="Path_22961" data-name="Path 22961" d="M198.739,61.511H182.756a2.756,2.756,0,0,1,0-5.511h15.983a2.756,2.756,0,1,1,0,5.511Z" transform="translate(-149.229 0)" fill="none" stroke="#fff" stroke-linecap="round" stroke-linejoin="round" stroke-width="2"/>
      <path id="Path_22962" data-name="Path 22962" d="M198.739,221.511H182.756a2.756,2.756,0,0,1,0-5.511h15.983a2.756,2.756,0,1,1,0,5.511Z" transform="translate(-149.229 -148.977)" fill="none" stroke="#fff" stroke-linecap="round" stroke-linejoin="round" stroke-width="2"/>
      <path id="Path_22963" data-name="Path 22963" d="M198.739,381.511H182.756a2.756,2.756,0,1,1,0-5.511h15.983a2.756,2.756,0,1,1,0,5.511Z" transform="translate(-149.229 -297.955)" fill="none" stroke="#fff" stroke-linecap="round" stroke-linejoin="round" stroke-width="2"/>
    </g>
  </g>
</svg>
