<svg xmlns="http://www.w3.org/2000/svg" width="22" height="20" viewBox="0 0 22 20">
  <g id="favorite" transform="translate(-1 -2)">
    <path id="Path_15230" data-name="Path 15230" d="M19.531,5.437a5.189,5.189,0,0,0-6.879-.257,1.035,1.035,0,0,1-1.3,0,5.189,5.189,0,0,0-6.879.257A4.742,4.742,0,0,0,4.2,12.025a1,1,0,0,1,.069.087L12,19.607l7.727-7.495a1.006,1.006,0,0,1,.069-.087,4.742,4.742,0,0,0-.264-6.588ZM21.423,13.2a6.741,6.741,0,0,0-.5-9.2A7.193,7.193,0,0,0,12,3.177,7.193,7.193,0,0,0,3.076,4a6.741,6.741,0,0,0-.5,9.2,1,1,0,0,0,.17.218l8.557,8.3a1,1,0,0,0,1.392,0l8.557-8.3a1,1,0,0,0,.17-.218Z" fill-rule="evenodd"/>
    <path id="Path_15231" data-name="Path 15231" d="M18,9a2,2,0,0,0-2-2V5a4,4,0,0,1,4,4Z" fill-rule="evenodd"/>
  </g>
</svg>
