<svg xmlns="http://www.w3.org/2000/svg" width="21.837" height="20.688" viewBox="0 0 21.837 20.688">
  <path id="Path_15228" data-name="Path 15228" d="M62.093,756.6v3.964a1.111,1.111,0,0,0,1.091,1.124h6.562a1.111,1.111,0,0,0,1.091-1.124V750.63a1.815,1.815,0,0,0-.514-1.269l-9.181-7.832a1.7,1.7,0,0,0-2.463,0l-9.165,7.832A1.816,1.816,0,0,0,49,750.63v9.934a1.111,1.111,0,0,0,1.091,1.124h6.547a1.111,1.111,0,0,0,1.091-1.124V756.6a2.183,2.183,0,1,1,4.364,0Z" transform="translate(-49 -741)" fill="#055265"/>
</svg>
